<svg width="140" height="140" viewBox="0 0 140 140" fill="none" xmlns="http://www.w3.org/2000/svg">
<rect width="140" height="140" rx="51" fill="url(#paint0_linear_59_996)"/>
<path d="M53.472 37.9863C48.2038 39.9917 46.1576 44.3476 45.0877 49.6299C44.2756 53.6391 44.7437 92.649 44.9157 98.9496C45.0877 105.252 47.547 111.748 52.4451 112.924C55.0829 113.558 58.2798 113.733 60.8443 113.749C63.4498 113.764 65.4573 111.602 65.4632 108.997L65.6138 41.67C65.6199 38.9413 63.4351 36.7175 60.7132 36.9096C58.4749 37.0676 55.809 37.3786 53.472 37.9863Z" stroke="white" stroke-width="5"/>
<path d="M78.7812 26.2512C76.2579 26.2714 74.381 28.4142 74.3891 30.9376L74.5355 76.2732C74.5445 79.074 76.8561 81.309 79.6293 80.9162C81.7677 80.6134 84.2786 80.1138 86.5332 79.2923C91.8194 77.3683 93.0536 73.2641 94.4624 70.9276C95.8712 68.5891 95.5197 40.2684 94.2853 36.2821C93.0536 32.2938 90.4106 29.5896 86.5332 27.5274C84.5388 26.4667 81.3795 26.2305 78.7812 26.2512Z" stroke="white" stroke-width="5"/>
<defs>
<linearGradient id="paint0_linear_59_996" x1="101.719" y1="5.46875" x2="29.5312" y2="133.437" gradientUnits="userSpaceOnUse">
<stop stop-color="#9E2692"/>
<stop offset="1" stop-color="#FAA958"/>
</linearGradient>
</defs>
</svg>
